<svg xmlns="http://www.w3.org/2000/svg" width="20.707" height="20.707" viewBox="0 0 20.707 20.707">
  <path id="download-solid" d="M8.736,0h3.235a.968.968,0,0,1,.971.971V7.765h3.547a.807.807,0,0,1,.57,1.379L10.907,15.3a.784.784,0,0,1-1.1,0L3.644,9.144a.807.807,0,0,1,.57-1.379H7.765V.971A.968.968,0,0,1,8.736,0ZM20.707,15.206v4.53a.968.968,0,0,1-.971.971H.971A.968.968,0,0,1,0,19.736v-4.53a.968.968,0,0,1,.971-.971H6.9l1.982,1.982a2.072,2.072,0,0,0,2.936,0L13.8,14.236h5.933A.968.968,0,0,1,20.707,15.206Zm-5.015,3.559a.809.809,0,1,0-.809.809A.811.811,0,0,0,15.692,18.765Zm2.588,0a.809.809,0,1,0-.809.809A.811.811,0,0,0,18.28,18.765Z" fill="#ff3b2e"/>
</svg>
