<svg xmlns="http://www.w3.org/2000/svg" width="29.346" height="25.813" viewBox="0 0 29.346 25.813">
  <path id="heart-regular" d="M25.379,33.768a8.339,8.339,0,0,0-11.206.83,8.334,8.334,0,0,0-11.206-.83,8.377,8.377,0,0,0-.587,12.247l9.711,9.894a2.908,2.908,0,0,0,4.163.006l9.711-9.894A8.383,8.383,0,0,0,25.379,33.768ZM24.072,44.148l-9.711,9.894a.228.228,0,0,1-.376,0L4.274,44.148a5.71,5.71,0,0,1,.4-8.343,5.613,5.613,0,0,1,7.557.581l1.938,1.977,1.938-1.977a5.609,5.609,0,0,1,7.557-.587A5.734,5.734,0,0,1,24.072,44.148Z" transform="translate(0.5 -31.475)" fill="#414043" stroke="#414043" stroke-width="1"/>
</svg>
