<svg xmlns="http://www.w3.org/2000/svg" width="28.504" height="25.389" viewBox="0 0 28.504 25.389">
  <path id="shopping-cart-regular" d="M26.833,3.111H7.014L6.589.943A1.167,1.167,0,0,0,5.444,0H.583A.583.583,0,0,0,0,.583V1.75a.583.583,0,0,0,.583.583h3.9L7.867,19.624a3.111,3.111,0,1,0,4.938.6h7.057a3.111,3.111,0,1,0,4.849-.687l.05-.231a1.167,1.167,0,0,0-1.14-1.415H9.9l-.456-2.333H24.635a1.167,1.167,0,0,0,1.14-.919l2.2-10.111A1.167,1.167,0,0,0,26.833,3.111ZM10.111,22.944a1.167,1.167,0,1,1,1.167-1.167A1.168,1.168,0,0,1,10.111,22.944Zm12.444,0a1.167,1.167,0,1,1,1.167-1.167A1.168,1.168,0,0,1,22.556,22.944Zm1.139-9.722H8.992L7.47,5.444H25.386l-1.691,7.778Z" transform="translate(0.25 0.25)" fill="#414043" stroke="#414043" stroke-width="0.5"/>
</svg>
