<svg xmlns="http://www.w3.org/2000/svg" width="35.586" height="34.061" viewBox="0 0 35.586 34.061">
  <path id="star-regular" d="M54.263,11.4,44.545,9.979,40.2,1.172a2.13,2.13,0,0,0-3.818,0L32.04,9.979,22.322,11.4a2.13,2.13,0,0,0-1.177,3.632l7.031,6.851-1.663,9.678A2.127,2.127,0,0,0,29.6,33.8l8.694-4.57,8.694,4.57a2.129,2.129,0,0,0,3.086-2.242L48.41,21.879l7.031-6.851A2.13,2.13,0,0,0,54.263,11.4Zm-9.279,9.365,1.576,9.206-8.268-4.344-8.268,4.344L31.6,20.761,24.91,14.243,34.155,12.9l4.137-8.381L42.43,12.9l9.246,1.344Z" transform="translate(-20.5 0.013)" fill="#fff"/>
</svg>
