<svg xmlns="http://www.w3.org/2000/svg" width="22.854" height="22.854" viewBox="0 0 22.854 22.854">
  <path id="times-solid" d="M15.759,91.427l6.5-6.5a2.042,2.042,0,0,0,0-2.888L20.812,80.6a2.042,2.042,0,0,0-2.888,0l-6.5,6.5-6.5-6.5a2.042,2.042,0,0,0-2.888,0L.6,82.042a2.042,2.042,0,0,0,0,2.888l6.5,6.5-6.5,6.5a2.042,2.042,0,0,0,0,2.888l1.444,1.444a2.042,2.042,0,0,0,2.888,0l6.5-6.5,6.5,6.5a2.042,2.042,0,0,0,2.888,0l1.444-1.444a2.042,2.042,0,0,0,0-2.888Z" transform="translate(0 -80)" fill="#414043"/>
</svg>
