<svg xmlns="http://www.w3.org/2000/svg" width="30" height="30" viewBox="0 0 30 30">
  <defs>
    <style>
      .cls-1 {
        fill: #ff3b2e;
      }
    </style>
  </defs>
  <path id="expand-solid" class="cls-1" d="M29.2,42.714h-8.3a1.6,1.6,0,0,1-1.607-1.607V32.8a.806.806,0,0,1,.8-.8h2.679a.806.806,0,0,1,.8.8v5.625H29.2a.806.806,0,0,1,.8.8v2.679A.806.806,0,0,1,29.2,42.714ZM10.714,41.107V32.8a.806.806,0,0,0-.8-.8H7.232a.806.806,0,0,0-.8.8v5.625H.8a.806.806,0,0,0-.8.8v2.679a.806.806,0,0,0,.8.8h8.3A1.6,1.6,0,0,0,10.714,41.107Zm0,20.089v-8.3a1.6,1.6,0,0,0-1.607-1.607H.8a.806.806,0,0,0-.8.8v2.679a.806.806,0,0,0,.8.8H6.429V61.2a.806.806,0,0,0,.8.8H9.911A.806.806,0,0,0,10.714,61.2Zm12.857,0V55.571H29.2a.806.806,0,0,0,.8-.8V52.089a.806.806,0,0,0-.8-.8h-8.3a1.6,1.6,0,0,0-1.607,1.607v8.3a.806.806,0,0,0,.8.8h2.679A.806.806,0,0,0,23.571,61.2Z" transform="translate(0 -32)"/>
</svg>
