<svg xmlns="http://www.w3.org/2000/svg" width="30" height="30" viewBox="0 0 30 30"><defs><style>.a{fill:#ff3b2e;}</style></defs><path class="a" d="M0,41.911v-8.3A1.6,1.6,0,0,1,1.607,32h8.3a.806.806,0,0,1,.8.8v2.679a.806.806,0,0,1-.8.8H4.286v5.625a.806.806,0,0,1-.8.8H.8A.806.806,0,0,1,0,41.911ZM19.286,32.8v2.679a.806.806,0,0,0,.8.8h5.625v5.625a.806.806,0,0,0,.8.8H29.2a.806.806,0,0,0,.8-.8v-8.3A1.6,1.6,0,0,0,28.393,32h-8.3A.806.806,0,0,0,19.286,32.8ZM29.2,51.286H26.518a.806.806,0,0,0-.8.8v5.625H20.089a.806.806,0,0,0-.8.8V61.2a.806.806,0,0,0,.8.8h8.3A1.6,1.6,0,0,0,30,60.393v-8.3A.806.806,0,0,0,29.2,51.286ZM10.714,61.2V58.518a.806.806,0,0,0-.8-.8H4.286V52.089a.806.806,0,0,0-.8-.8H.8a.806.806,0,0,0-.8.8v8.3A1.6,1.6,0,0,0,1.607,62h8.3A.806.806,0,0,0,10.714,61.2Z" transform="translate(0 -32)"/></svg>